{
  "accessors": [
    {
      "bufferView": 2,
      "componentType": 5126,
      "count": 4299,
      "max": [
        -1.2010629177093506,
        1.7870464324951172,
        0.5384509563446045
      ],
      "min": [
        -7.066254138946533,
        -1.7870465517044067,
        -0.321999728679657
      ],
      "type": "VEC3"
    },
    {
      "bufferView": 2,
      "byteOffset": 51588,
      "componentType": 5126,
      "count": 4299,
      "max": [
        0.9629945158958435,
        0.9999986886978149,
        0.9988088607788086
      ],
      "min": [
        -0.9938874244689941,
        -0.9999982714653015,
        -0.9847744107246399
      ],
      "type": "VEC3"
    },
    {
      "bufferView": 3,
      "componentType": 5126,
      "count": 4299,
      "max": [
        0.8792989253997803,
        0.9845434427261353,
        0.9995541572570801,
        1.0
      ],
      "min": [
        -0.9082455635070801,
        -0.9888026714324951,
        -0.9894229173660278,
        1.0
      ],
      "type": "VEC4"
    },
    {
      "bufferView": 1,
      "componentType": 5126,
      "count": 4299,
      "max": [
        0.9999986886978149,
        0.9576126933097839
      ],
      "min": [
        2.3748725652694702e-07,
        2.086162567138672e-07
      ],
      "type": "VEC2"
    },
    {
      "bufferView": 0,
      "componentType": 5125,
      "count": 23907,
      "type": "SCALAR"
    },
    {
      "bufferView": 2,
      "byteOffset": 103176,
      "componentType": 5126,
      "count": 65532,
      "max": [
        5.166101932525635,
        2.034503936767578,
        1.4849756956100464
      ],
      "min": [
        -9.754768371582031,
        -2.0290591716766357,
        -2.3577358722686768
      ],
      "type": "VEC3"
    },
    {
      "bufferView": 2,
      "byteOffset": 889560,
      "componentType": 5126,
      "count": 65532,
      "max": [
        0.9999409914016724,
        1.0,
        1.0
      ],
      "min": [
        -0.9999999403953552,
        -1.0,
        -0.9999968409538269
      ],
      "type": "VEC3"
    },
    {
      "bufferView": 3,
      "byteOffset": 68784,
      "componentType": 5126,
      "count": 65532,
      "max": [
        0.9999700784683228,
        0.9999998807907104,
        0.9999924302101135,
        1.0
      ],
      "min": [
        -0.999997615814209,
        -0.999992847442627,
        -0.999552309513092,
        -1.0
      ],
      "type": "VEC4"
    },
    {
      "bufferView": 1,
      "byteOffset": 34392,
      "componentType": 5126,
      "count": 65532,
      "max": [
        0.9988857507705688,
        0.999997615814209
      ],
      "min": [
        2.51084566116333e-06,
        2.4884939193725586e-06
      ],
      "type": "VEC2"
    },
    {
      "bufferView": 0,
      "byteOffset": 95628,
      "componentType": 5125,
      "count": 371244,
      "type": "SCALAR"
    },
    {
      "bufferView": 2,
      "byteOffset": 1675944,
      "componentType": 5126,
      "count": 18503,
      "max": [
        5.1630778312683105,
        1.9536572694778442,
        1.4841792583465576
      ],
      "min": [
        -9.750894546508789,
        -2.0345044136047363,
        -2.3577358722686768
      ],
      "type": "VEC3"
    },
    {
      "bufferView": 2,
      "byteOffset": 1897980,
      "componentType": 5126,
      "count": 18503,
      "max": [
        0.9999390840530396,
        0.9999893307685852,
        0.9999796152114868
      ],
      "min": [
        -0.9999592900276184,
        -1.0,
        -0.9999672174453735
      ],
      "type": "VEC3"
    },
    {
      "bufferView": 3,
      "byteOffset": 1117296,
      "componentType": 5126,
      "count": 18503,
      "max": [
        0.9999601244926453,
        0.9999945759773254,
        0.999728262424469,
        1.0
      ],
      "min": [
        -0.999997615814209,
        -0.9996225237846375,
        -0.9999967217445374,
        1.0
      ],
      "type": "VEC4"
    },
    {
      "bufferView": 1,
      "byteOffset": 558648,
      "componentType": 5126,
      "count": 18503,
      "max": [
        0.998935341835022,
        0.9588884711265564
      ],
      "min": [
        0.00018340349197387695,
        0.005378022789955139
      ],
      "type": "VEC2"
    },
    {
      "bufferView": 0,
      "byteOffset": 1580604,
      "componentType": 5125,
      "count": 93147,
      "type": "SCALAR"
    }
  ],
  "asset": {
    "extras": {
      "author": "dylanheyes (https://sketchfab.com/dylanheyes)",
      "license": "CC-BY-4.0 (http://creativecommons.org/licenses/by/4.0/)",
      "source": "https://sketchfab.com/3d-models/futuristic-speedboat-5a8f4d21472e4b2b8ec4d23f70cf8cbc",
      "title": "Futuristic Speedboat"
    },
    "generator": "Sketchfab-14.86.0",
    "version": "2.0"
  },
  "bufferViews": [
    {
      "buffer": 0,
      "byteLength": 1953192,
      "name": "floatBufferViews",
      "target": 34963
    },
    {
      "buffer": 0,
      "byteLength": 706672,
      "byteOffset": 1953192,
      "byteStride": 8,
      "name": "floatBufferViews",
      "target": 34962
    },
    {
      "buffer": 0,
      "byteLength": 2120016,
      "byteOffset": 2659864,
      "byteStride": 12,
      "name": "floatBufferViews",
      "target": 34962
    },
    {
      "buffer": 0,
      "byteLength": 1413344,
      "byteOffset": 4779880,
      "byteStride": 16,
      "name": "floatBufferViews",
      "target": 34962
    }
  ],
  "buffers": [
    {
      "byteLength": 6193224,
      "uri": "scene.bin"
    }
  ],
  "images": [
    {
      "uri": "textures/Windows_baseColor.png"
    },
    {
      "uri": "textures/Windows_metallicRoughness.png"
    },
    {
      "uri": "textures/Windows_normal.png"
    },
    {
      "uri": "textures/Hull_baseColor.png"
    },
    {
      "uri": "textures/Hull_metallicRoughness.png"
    },
    {
      "uri": "textures/Hull_normal.png"
    }
  ],
  "materials": [
    {
      "doubleSided": true,
      "name": "Windows",
      "normalTexture": {
        "index": 2
      },
      "occlusionTexture": {
        "index": 1
      },
      "pbrMetallicRoughness": {
        "baseColorTexture": {
          "index": 0
        },
        "metallicRoughnessTexture": {
          "index": 1
        }
      }
    },
    {
      "doubleSided": true,
      "name": "Hull",
      "normalTexture": {
        "index": 5
      },
      "occlusionTexture": {
        "index": 4
      },
      "pbrMetallicRoughness": {
        "baseColorTexture": {
          "index": 3
        },
        "metallicRoughnessTexture": {
          "index": 4
        }
      }
    }
  ],
  "meshes": [
    {
      "name": "Futuristic Speedboat_Windows_0",
      "primitives": [
        {
          "attributes": {
            "NORMAL": 1,
            "POSITION": 0,
            "TANGENT": 2,
            "TEXCOORD_0": 3
          },
          "indices": 4,
          "material": 0,
          "mode": 4
        }
      ]
    },
    {
      "name": "Futuristic Speedboat_Hull_0",
      "primitives": [
        {
          "attributes": {
            "NORMAL": 6,
            "POSITION": 5,
            "TANGENT": 7,
            "TEXCOORD_0": 8
          },
          "indices": 9,
          "material": 1,
          "mode": 4
        }
      ]
    },
    {
      "name": "Futuristic Speedboat_Hull_0",
      "primitives": [
        {
          "attributes": {
            "NORMAL": 11,
            "POSITION": 10,
            "TANGENT": 12,
            "TEXCOORD_0": 13
          },
          "indices": 14,
          "material": 1,
          "mode": 4
        }
      ]
    }
  ],
  "nodes": [
    {
      "children": [
        1
      ],
      "matrix": [
        0.6286352276802063,
        0.0,
        0.0,
        0.0,
        0.0,
        1.3958506077220851e-16,
        -0.6286352276802063,
        0.0,
        0.0,
        0.6286352276802063,
        1.3958506077220851e-16,
        0.0,
        0.0,
        0.0,
        0.0,
        1.0
      ],
      "name": "Sketchfab_model"
    },
    {
      "children": [
        2
      ],
      "matrix": [
        0.009999999776482582,
        0.0,
        0.0,
        0.0,
        0.0,
        0.0,
        0.009999999776482582,
        0.0,
        0.0,
        -0.009999999776482582,
        0.0,
        0.0,
        0.0,
        0.0,
        0.0,
        1.0
      ],
      "name": "742cfb0f604846e0aa2d0923269ca0a3.fbx"
    },
    {
      "children": [
        3
      ],
      "name": "RootNode"
    },
    {
      "children": [
        4,
        5,
        6
      ],
      "matrix": [
        100.0,
        0.0,
        0.0,
        0.0,
        0.0,
        -2.8212996916465727e-05,
        -99.99999999999602,
        0.0,
        0.0,
        99.99999999999602,
        -2.8212996916465727e-05,
        0.0,
        0.0,
        0.0,
        0.0,
        1.0
      ],
      "name": "Futuristic Speedboat"
    },
    {
      "mesh": 0,
      "name": "Futuristic Speedboat_Windows_0"
    },
    {
      "mesh": 1,
      "name": "Futuristic Speedboat_Hull_0"
    },
    {
      "mesh": 2,
      "name": "Futuristic Speedboat_Hull_0"
    }
  ],
  "samplers": [
    {
      "magFilter": 9729,
      "minFilter": 9987,
      "wrapS": 10497,
      "wrapT": 10497
    }
  ],
  "scene": 0,
  "scenes": [
    {
      "name": "Sketchfab_Scene",
      "nodes": [
        0
      ]
    }
  ],
  "textures": [
    {
      "sampler": 0,
      "source": 0
    },
    {
      "sampler": 0,
      "source": 1
    },
    {
      "sampler": 0,
      "source": 2
    },
    {
      "sampler": 0,
      "source": 3
    },
    {
      "sampler": 0,
      "source": 4
    },
    {
      "sampler": 0,
      "source": 5
    }
  ]
}
